<?xml version="1.0" standalone="no"?><!DOCTYPE svg PUBLIC "-//W3C//DTD SVG 1.1//EN" "http://www.w3.org/Graphics/SVG/1.1/DTD/svg11.dtd"><svg t="1763808453448" class="icon" viewBox="0 0 1024 1024" version="1.1" xmlns="http://www.w3.org/2000/svg" p-id="9641" xmlns:xlink="http://www.w3.org/1999/xlink" width="48" height="48"><path d="M167.402892 457.638847c72.662547 14.803704 122.317554 11.919762 122.317554 11.919762-188.604228-26.955461-220.269595-82.638347-243.275135-125.849483C16.113918 286.730265 5.340133 0 5.340133 0s-11.835763 179.340413-0.223995 283.766325c11.613768 104.453911 89.608208 159.066819 162.288754 173.872522z m380.722385-66.164676c-76.098478 19.551609-138.147237 132.637347-138.147237 132.637347s63.958721 29.185416 121.103578-16.99966c61.952761-50.070999 69.254615-159.884802 69.254615-159.884803s-133.659327-1.213976-177.632447 38.53923c-43.97712 39.757205-30.803384 98.778024-30.803384 98.778024l-26.867463 38.471231c-4.043919-60.102798-15.157697-105.343893-35.863282-142.847143-62.718746-113.599728-148.667027-176.248475-274.304514-224.255515C79.408652 165.836683 256.797104 242.97514 304.250155 433.603328c29.571409 118.791624-14.51571 350.688986-14.51571 350.688986-15.973681 116.647667 63.048739 221.671567 179.680407 237.629248 117.47765 16.075678 222.649547-63.760725 238.47523-179.596409 24.623508-184.710306-189.032219-314.587708-342.627147-194.524109 1.075978-24.723506 1.601968-47.599048 1.553969-68.914622 66.456671-182.292354 181.308374-187.412252 181.308373-187.412251zM37.057499 25.727485c51.560969 101.405972 152.168957 60.97878 276.148477 181.698366 39.819204 38.775224 58.606828 104.9759 64.298714 172.808544 4.099918-68.778624-12.383752-142.047159-59.618808-190.020199-111.097778-112.837743-221.949561-78.446431-280.828383-164.486711z m384.266315 921.101578c-102.935941-59.344813-102.935941-208.50983 0-267.854642 102.937941-59.344813 232.307354 15.239695 232.307353 133.927321s-129.369413 193.272135-232.307353 133.927321z" fill="#6AAB20" p-id="9642"></path></svg>