<?xml version="1.0" standalone="no"?><!DOCTYPE svg PUBLIC "-//W3C//DTD SVG 1.1//EN" "http://www.w3.org/Graphics/SVG/1.1/DTD/svg11.dtd"><svg t="1763804041319" class="icon" viewBox="0 0 1024 1024" version="1.1" xmlns="http://www.w3.org/2000/svg" p-id="2439" xmlns:xlink="http://www.w3.org/1999/xlink" width="48" height="48"><path d="M953.8097 138.205014L768.363584 63.968995l-400.765754 390.594684-245.001251-186.373667-52.902359 26.771024V729.246543l52.582514 26.45118 244.681406-186.373667L768.363584 959.534925l185.510085-74.236018V138.205014zM148.727913 613.846476v-203.869187l113.544967 101.294904zM511.75196 511.272193l226.514212-169.517837v340.283069l-226.834057-170.765232z" fill="#68217A" p-id="2440"></path><path d="M511.592038 511.272193l226.514211-169.485853v340.251085l-226.834056-170.765232h0.319845zM148.727913 613.846476v-203.869187l113.417029 101.294904-113.417029 102.574283z" fill="#FFFFFF" p-id="2441"></path><path d="M962.381546 901.163217l-279.672447-0.031984v-61.250313l-61.250312-0.063969v-279.576493l61.218328 0.031985-0.063969-61.186344h279.704431v61.250313h61.218328l-0.063969 122.404672H1023.50392v157.203805h-61.154359l0.031985 61.218328z" fill="#EFEEF0" p-id="2442"></path><path d="M496.623293 1023.50392A228.977018 228.977018 0 0 1 319.844975 951.794677a259.07443 259.07443 0 0 1-63.968995-181.767899 273.787299 273.787299 0 0 1 70.781693-193.922009A243.338057 243.338057 0 0 1 511.75196 498.958161a314.599518 314.599518 0 0 1 113.800842 18.582993l30.57718 11.898233v209.818304l-73.564344-46.633397a115.144191 115.144191 0 0 0-63.617166-17.399567 67.711181 67.711181 0 0 0-53.47808 21.173737 94.578159 94.578159 0 0 0-21.045799 66.879585 92.019399 92.019399 0 0 0 19.670466 63.968995 60.770545 60.770545 0 0 0 49.959785 19.638481 126.914486 126.914486 0 0 0 68.862623-19.190698l73.308468-45.609894v200.862645l-26.067365 13.401504a292.466245 292.466245 0 0 1-133.535277 27.154838z" fill="#EFEEF0" p-id="2443"></path><path d="M730.653861 546.934907h61.250313v61.250313h61.218328V546.934907h61.218328v61.250313H975.527174v61.218328h-61.186344v61.186344H975.527174v61.346266h-61.186344v61.218329h-61.218328v-61.15436h-61.154359v61.218329h-61.282297v-61.250313H669.435533v-61.314282h61.250313v-61.058406H669.435533v-61.346266h61.250313z m61.250313 183.718954h61.218328v-61.154359h-61.218328zM608.249189 953.457871a244.681406 244.681406 0 0 1-111.625896 21.941365 182.311636 182.311636 0 0 1-141.275526-56.036839 212.025234 212.025234 0 0 1-51.495041-149.303635 226.354289 226.354289 0 0 1 57.859956-161.169883A196.256877 196.256877 0 0 1 511.75196 546.934907a266.39888 266.39888 0 0 1 96.369291 15.320575v89.844453a163.376813 163.376813 0 0 0-89.300717-24.851954 115.144191 115.144191 0 0 0-88.75698 36.686218 141.01965 141.01965 0 0 0-33.743645 99.375834 138.524859 138.524859 0 0 0 31.984497 95.761586 109.16309 109.16309 0 0 0 85.750438 35.662714 174.827263 174.827263 0 0 0 94.194345-26.579117z" fill="#368832" p-id="2444"></path></svg>