<?xml version="1.0" standalone="no"?><!DOCTYPE svg PUBLIC "-//W3C//DTD SVG 1.1//EN" "http://www.w3.org/Graphics/SVG/1.1/DTD/svg11.dtd"><svg t="1763808619408" class="icon" viewBox="0 0 1024 1024" version="1.1" xmlns="http://www.w3.org/2000/svg" p-id="2077" xmlns:xlink="http://www.w3.org/1999/xlink" width="48" height="48"><path d="M702.8 577.2L512 736l-190.8-158.8C178.2 583.4 64 700.4 64 844.8V928c0 53 43 96 96 96h704c53 0 96-43 96-96v-83.2c0-144.4-114.2-261.4-257.2-267.6zM480 960H160c-17.6 0-32-14.4-32-32v-83.2c0-101.6 74.2-186 172.8-201.4 179.8 149.6 166.4 138.4 179.2 149.2V960z m416-32c0 17.6-14.4 32-32 32H544v-167.4c12.6-10.6-0.4 0.4 179.2-149.2 98.6 15.4 172.8 99.8 172.8 201.4V928zM128 384c54.6 0 103.6-23 138.4-59.4 30.2 107.8 128 187.4 245.6 187.4 141.4 0 256-114.6 256-256S653.4 0 512 0c-100.8 0-187.2 58.8-229 143.6C248.2 95.6 192 64 128 64c0 66.8 34.2 125.6 86.2 160-52 34.4-86.2 93.2-86.2 160zM512 64c105.8 0 192 86.2 192 192s-86.2 192-192 192-192-86.2-192-192 86.2-192 192-192z m96 128h-192c-35.4 0-64 28.6-64 64h320c0-35.4-28.6-64-64-64z" p-id="2078"></path></svg>